<svg width="21" height="20" viewBox="0 0 21 20" fill="none" xmlns="http://www.w3.org/2000/svg">
<path d="M7.16675 4.79164C6.82508 4.79164 6.54175 4.50831 6.54175 4.16664V1.66664C6.54175 1.32497 6.82508 1.04164 7.16675 1.04164C7.50841 1.04164 7.79175 1.32497 7.79175 1.66664V4.16664C7.79175 4.50831 7.50841 4.79164 7.16675 4.79164Z" fill="#292D32"/>
<path d="M13.8333 4.79164C13.4916 4.79164 13.2083 4.50831 13.2083 4.16664V1.66664C13.2083 1.32497 13.4916 1.04164 13.8333 1.04164C14.1749 1.04164 14.4583 1.32497 14.4583 1.66664V4.16664C14.4583 4.50831 14.1749 4.79164 13.8333 4.79164Z" fill="#292D32"/>
<path d="M7.58333 12.0833C7.475 12.0833 7.36667 12.0583 7.26667 12.0167C7.15833 11.975 7.075 11.9167 6.99167 11.8417C6.84167 11.6833 6.75 11.475 6.75 11.25C6.75 11.1417 6.775 11.0333 6.81667 10.9333C6.85833 10.8333 6.91667 10.7417 6.99167 10.6583C7.075 10.5833 7.15833 10.525 7.26667 10.4833C7.56667 10.3583 7.94167 10.425 8.175 10.6583C8.325 10.8167 8.41667 11.0333 8.41667 11.25C8.41667 11.3 8.40833 11.3583 8.4 11.4167C8.39167 11.4667 8.375 11.5167 8.35 11.5667C8.33333 11.6167 8.30833 11.6667 8.275 11.7167C8.25 11.7583 8.20833 11.8 8.175 11.8417C8.01667 11.9917 7.8 12.0833 7.58333 12.0833Z" fill="#292D32"/>
<path d="M10.5001 12.0833C10.3917 12.0833 10.2834 12.0583 10.1834 12.0166C10.0751 11.975 9.99175 11.9166 9.90842 11.8416C9.75842 11.6833 9.66675 11.475 9.66675 11.25C9.66675 11.1416 9.69175 11.0333 9.73342 10.9333C9.77508 10.8333 9.83342 10.7416 9.90842 10.6583C9.99175 10.5833 10.0751 10.525 10.1834 10.4833C10.4834 10.35 10.8584 10.425 11.0917 10.6583C11.2417 10.8166 11.3334 11.0333 11.3334 11.25C11.3334 11.3 11.3251 11.3583 11.3167 11.4166C11.3084 11.4666 11.2917 11.5166 11.2667 11.5666C11.2501 11.6166 11.2251 11.6666 11.1917 11.7166C11.1667 11.7583 11.1251 11.8 11.0917 11.8416C10.9334 11.9916 10.7167 12.0833 10.5001 12.0833Z" fill="#292D32"/>
<path d="M13.4166 12.0833C13.3083 12.0833 13.1999 12.0583 13.0999 12.0166C12.9916 11.975 12.9083 11.9166 12.8249 11.8416C12.7916 11.8 12.7583 11.7583 12.7249 11.7166C12.6916 11.6666 12.6666 11.6166 12.6499 11.5666C12.6249 11.5166 12.6083 11.4666 12.5999 11.4166C12.5916 11.3583 12.5833 11.3 12.5833 11.25C12.5833 11.0333 12.6749 10.8166 12.8249 10.6583C12.9083 10.5833 12.9916 10.525 13.0999 10.4833C13.4083 10.35 13.7749 10.425 14.0083 10.6583C14.1583 10.8166 14.2499 11.0333 14.2499 11.25C14.2499 11.3 14.2416 11.3583 14.2333 11.4166C14.2249 11.4666 14.2083 11.5166 14.1833 11.5666C14.1666 11.6166 14.1416 11.6666 14.1083 11.7166C14.0833 11.7583 14.0416 11.8 14.0083 11.8416C13.8499 11.9916 13.6333 12.0833 13.4166 12.0833Z" fill="#292D32"/>
<path d="M7.58333 15C7.475 15 7.36667 14.975 7.26667 14.9333C7.16667 14.8917 7.075 14.8333 6.99167 14.7583C6.84167 14.6 6.75 14.3833 6.75 14.1666C6.75 14.0583 6.775 13.95 6.81667 13.85C6.85833 13.7416 6.91667 13.65 6.99167 13.575C7.3 13.2667 7.86667 13.2667 8.175 13.575C8.325 13.7333 8.41667 13.95 8.41667 14.1666C8.41667 14.3833 8.325 14.6 8.175 14.7583C8.01667 14.9083 7.8 15 7.58333 15Z" fill="#292D32"/>
<path d="M10.5001 15C10.2834 15 10.0667 14.9083 9.90842 14.7583C9.75842 14.6 9.66675 14.3833 9.66675 14.1666C9.66675 14.0583 9.69175 13.95 9.73342 13.85C9.77508 13.7416 9.83342 13.65 9.90842 13.575C10.2167 13.2667 10.7834 13.2667 11.0917 13.575C11.1667 13.65 11.2251 13.7416 11.2667 13.85C11.3084 13.95 11.3334 14.0583 11.3334 14.1666C11.3334 14.3833 11.2417 14.6 11.0917 14.7583C10.9334 14.9083 10.7167 15 10.5001 15Z" fill="#292D32"/>
<path d="M13.4166 15C13.1999 15 12.9833 14.9083 12.8249 14.7583C12.7499 14.6833 12.6916 14.5917 12.6499 14.4833C12.6083 14.3833 12.5833 14.275 12.5833 14.1667C12.5833 14.0583 12.6083 13.95 12.6499 13.85C12.6916 13.7417 12.7499 13.65 12.8249 13.575C13.0166 13.3833 13.3083 13.2917 13.5749 13.35C13.6333 13.3583 13.6833 13.375 13.7333 13.4C13.7833 13.4167 13.8333 13.4417 13.8833 13.475C13.9249 13.5 13.9666 13.5417 14.0083 13.575C14.1583 13.7333 14.2499 13.95 14.2499 14.1667C14.2499 14.3833 14.1583 14.6 14.0083 14.7583C13.8499 14.9083 13.6333 15 13.4166 15Z" fill="#292D32"/>
<path d="M17.5834 8.2H3.41675C3.07508 8.2 2.79175 7.91666 2.79175 7.575C2.79175 7.23333 3.07508 6.95 3.41675 6.95H17.5834C17.9251 6.95 18.2084 7.23333 18.2084 7.575C18.2084 7.91666 17.9251 8.2 17.5834 8.2Z" fill="#292D32"/>
<path d="M13.8333 18.9583H7.16667C4.125 18.9583 2.375 17.2083 2.375 14.1666V7.08331C2.375 4.04164 4.125 2.29164 7.16667 2.29164H13.8333C16.875 2.29164 18.625 4.04164 18.625 7.08331V14.1666C18.625 17.2083 16.875 18.9583 13.8333 18.9583ZM7.16667 3.54164C4.78333 3.54164 3.625 4.69997 3.625 7.08331V14.1666C3.625 16.55 4.78333 17.7083 7.16667 17.7083H13.8333C16.2167 17.7083 17.375 16.55 17.375 14.1666V7.08331C17.375 4.69997 16.2167 3.54164 13.8333 3.54164H7.16667Z" fill="#292D32"/>
</svg>
