<svg width="24" height="24" viewBox="0 0 24 24" fill="none" xmlns="http://www.w3.org/2000/svg">
<path opacity="0.4" d="M16.24 3.65002H7.75998C5.28998 3.65002 3.28998 5.66002 3.28998 8.12002V17.53C3.28998 19.99 5.29998 22 7.75998 22H16.23C18.7 22 20.7 19.99 20.7 17.53V8.12002C20.71 5.65002 18.7 3.65002 16.24 3.65002Z" fill="#007BFF"/>
<path d="M14.35 2H9.65001C8.61001 2 7.76001 2.84 7.76001 3.88V4.82C7.76001 5.86 8.60001 6.7 9.64001 6.7H14.35C15.39 6.7 16.23 5.86 16.23 4.82V3.88C16.24 2.84 15.39 2 14.35 2Z" fill="#007BFF"/>
<path d="M14.53 15.62L13.08 14.17L14.48 12.77C14.77 12.48 14.77 12 14.48 11.71C14.19 11.42 13.71 11.42 13.42 11.71L12.02 13.11L10.57 11.66C10.28 11.37 9.8 11.37 9.51 11.66C9.22 11.95 9.22 12.43 9.51 12.72L10.96 14.17L9.47 15.66C9.18 15.95 9.18 16.43 9.47 16.72C9.62 16.87 9.81 16.94 10 16.94C10.19 16.94 10.38 16.87 10.53 16.72L12.02 15.23L13.47 16.68C13.62 16.83 13.81 16.9 14 16.9C14.19 16.9 14.38 16.83 14.53 16.68C14.82 16.39 14.82 15.92 14.53 15.62Z" fill="#007BFF"/>
</svg>
